<mxfile host="app.diagrams.net" agent="Mozilla/5.0 (X11; Linux x86_64) AppleWebKit/537.36 (KHTML, like Gecko) Chrome/139.0.0.0 Safari/537.36" version="28.1.0">
  <diagram name="Page-1" id="SFngXKMeFKJR5RbvRdrw">
    <mxGraphModel dx="768" dy="458" grid="1" gridSize="10" guides="1" tooltips="1" connect="1" arrows="1" fold="1" page="1" pageScale="1" pageWidth="850" pageHeight="1100" math="0" shadow="0">
      <root>
        <mxCell id="0" />
        <mxCell id="1" parent="0" />
        <mxCell id="XvD1D9-V97MnuDnXe-HW-22" value="" style="rounded=0;whiteSpace=wrap;html=1;fillColor=none;movable=1;resizable=1;rotatable=1;deletable=1;editable=1;locked=0;connectable=1;" vertex="1" parent="1">
          <mxGeometry x="340" y="230" width="880" height="1320" as="geometry" />
        </mxCell>
        <mxCell id="XvD1D9-V97MnuDnXe-HW-1" value="&lt;font face=&quot;Times New Roman&quot;&gt;&lt;span style=&quot;font-size: 16px;&quot;&gt;&lt;b&gt;Diagrama de Secuencia caso ...&lt;/b&gt;&lt;/span&gt;&lt;/font&gt;" style="text;html=1;align=center;verticalAlign=middle;whiteSpace=wrap;rounded=0;" vertex="1" parent="1">
          <mxGeometry x="547" y="110" width="460" height="110" as="geometry" />
        </mxCell>
        <mxCell id="XvD1D9-V97MnuDnXe-HW-2" value="Registro a Edición de Evento" style="rounded=0;whiteSpace=wrap;html=1;" vertex="1" parent="1">
          <mxGeometry x="340" y="230" width="160" height="80" as="geometry" />
        </mxCell>
        <mxCell id="XvD1D9-V97MnuDnXe-HW-3" value="" style="shape=umlActor;verticalLabelPosition=bottom;verticalAlign=top;html=1;outlineConnect=0;" vertex="1" parent="1">
          <mxGeometry x="440" y="350" width="40" height="80" as="geometry" />
        </mxCell>
        <mxCell id="XvD1D9-V97MnuDnXe-HW-4" value="&lt;font style=&quot;font-size: 22px;&quot;&gt;:SISTEMA&lt;/font&gt;" style="rounded=0;whiteSpace=wrap;html=1;" vertex="1" parent="1">
          <mxGeometry x="1020" y="350" width="120" height="80" as="geometry" />
        </mxCell>
        <mxCell id="XvD1D9-V97MnuDnXe-HW-5" value="" style="endArrow=classic;html=1;rounded=0;" edge="1" parent="1">
          <mxGeometry width="50" height="50" relative="1" as="geometry">
            <mxPoint x="480" y="510" as="sourcePoint" />
            <mxPoint x="1080" y="510" as="targetPoint" />
          </mxGeometry>
        </mxCell>
        <mxCell id="XvD1D9-V97MnuDnXe-HW-6" value="registroAEdicionEvento()" style="text;html=1;align=center;verticalAlign=middle;whiteSpace=wrap;rounded=0;" vertex="1" parent="1">
          <mxGeometry x="550" y="480" width="480" height="30" as="geometry" />
        </mxCell>
        <mxCell id="XvD1D9-V97MnuDnXe-HW-7" value="" style="endArrow=none;dashed=1;html=1;rounded=0;" edge="1" parent="1">
          <mxGeometry width="50" height="50" relative="1" as="geometry">
            <mxPoint x="479.71967741935464" y="445" as="sourcePoint" />
            <mxPoint x="480" y="1520" as="targetPoint" />
          </mxGeometry>
        </mxCell>
        <mxCell id="XvD1D9-V97MnuDnXe-HW-8" value="" style="endArrow=none;dashed=1;html=1;rounded=0;" edge="1" parent="1">
          <mxGeometry width="50" height="50" relative="1" as="geometry">
            <mxPoint x="1080.1996774193547" y="445" as="sourcePoint" />
            <mxPoint x="1080" y="1520" as="targetPoint" />
          </mxGeometry>
        </mxCell>
        <mxCell id="XvD1D9-V97MnuDnXe-HW-45" value="" style="rounded=0;whiteSpace=wrap;html=1;fillColor=none;" vertex="1" parent="1">
          <mxGeometry x="450" y="840" width="670" height="470" as="geometry" />
        </mxCell>
        <mxCell id="XvD1D9-V97MnuDnXe-HW-46" value="[Si se alcanzó el cupo o ya estaba registrado en la edición]" style="text;html=1;align=center;verticalAlign=middle;whiteSpace=wrap;rounded=0;" vertex="1" parent="1">
          <mxGeometry x="530" y="840" width="480" height="40" as="geometry" />
        </mxCell>
        <mxCell id="XvD1D9-V97MnuDnXe-HW-48" value="OPT" style="shape=card;whiteSpace=wrap;html=1;flipV=1;flipH=1;" vertex="1" parent="1">
          <mxGeometry x="450" y="840" width="80" height="50" as="geometry" />
        </mxCell>
        <mxCell id="XvD1D9-V97MnuDnXe-HW-53" value="" style="endArrow=classic;html=1;rounded=0;" edge="1" parent="1">
          <mxGeometry width="50" height="50" relative="1" as="geometry">
            <mxPoint x="1240" y="570" as="sourcePoint" />
            <mxPoint x="1840" y="570" as="targetPoint" />
          </mxGeometry>
        </mxCell>
        <mxCell id="XvD1D9-V97MnuDnXe-HW-54" value="registroAEdicionEvento()" style="text;html=1;align=center;verticalAlign=middle;whiteSpace=wrap;rounded=0;" vertex="1" parent="1">
          <mxGeometry x="1310" y="540" width="480" height="30" as="geometry" />
        </mxCell>
        <mxCell id="XvD1D9-V97MnuDnXe-HW-55" value="" style="endArrow=classic;html=1;rounded=0;" edge="1" parent="1">
          <mxGeometry width="50" height="50" relative="1" as="geometry">
            <mxPoint x="480" y="600" as="sourcePoint" />
            <mxPoint x="1080" y="600" as="targetPoint" />
          </mxGeometry>
        </mxCell>
        <mxCell id="XvD1D9-V97MnuDnXe-HW-56" value="seleccionEvento(DTEvento)" style="text;html=1;align=center;verticalAlign=middle;whiteSpace=wrap;rounded=0;" vertex="1" parent="1">
          <mxGeometry x="550" y="570" width="480" height="30" as="geometry" />
        </mxCell>
        <mxCell id="XvD1D9-V97MnuDnXe-HW-57" value="" style="endArrow=classic;html=1;rounded=0;" edge="1" parent="1">
          <mxGeometry width="50" height="50" relative="1" as="geometry">
            <mxPoint x="480" y="690" as="sourcePoint" />
            <mxPoint x="1080" y="690" as="targetPoint" />
          </mxGeometry>
        </mxCell>
        <mxCell id="XvD1D9-V97MnuDnXe-HW-58" value="seleccionEdicion(DTEdicion)" style="text;html=1;align=center;verticalAlign=middle;whiteSpace=wrap;rounded=0;" vertex="1" parent="1">
          <mxGeometry x="550" y="660" width="480" height="30" as="geometry" />
        </mxCell>
        <mxCell id="XvD1D9-V97MnuDnXe-HW-59" value="" style="endArrow=classic;html=1;rounded=0;" edge="1" parent="1">
          <mxGeometry width="50" height="50" relative="1" as="geometry">
            <mxPoint x="480" y="770" as="sourcePoint" />
            <mxPoint x="1080" y="770" as="targetPoint" />
          </mxGeometry>
        </mxCell>
        <mxCell id="XvD1D9-V97MnuDnXe-HW-60" value="sleccionAsistente(DTUsuario, DTTipoRegistro)" style="text;html=1;align=center;verticalAlign=middle;whiteSpace=wrap;rounded=0;" vertex="1" parent="1">
          <mxGeometry x="550" y="740" width="480" height="30" as="geometry" />
        </mxCell>
        <mxCell id="XvD1D9-V97MnuDnXe-HW-62" value="" style="rounded=0;whiteSpace=wrap;html=1;fillColor=none;" vertex="1" parent="1">
          <mxGeometry x="457" y="950" width="640" height="120" as="geometry" />
        </mxCell>
        <mxCell id="XvD1D9-V97MnuDnXe-HW-63" value="[Si quiere editar]" style="text;html=1;align=center;verticalAlign=middle;whiteSpace=wrap;rounded=0;" vertex="1" parent="1">
          <mxGeometry x="537" y="950" width="480" height="40" as="geometry" />
        </mxCell>
        <mxCell id="XvD1D9-V97MnuDnXe-HW-64" value="sleccionAsistente(DTUsuario, DTTipoRegistro)" style="text;html=1;align=center;verticalAlign=middle;whiteSpace=wrap;rounded=0;" vertex="1" parent="1">
          <mxGeometry x="537" y="1000" width="480" height="30" as="geometry" />
        </mxCell>
        <mxCell id="XvD1D9-V97MnuDnXe-HW-65" value="OPT" style="shape=card;whiteSpace=wrap;html=1;flipV=1;flipH=1;" vertex="1" parent="1">
          <mxGeometry x="457" y="950" width="80" height="50" as="geometry" />
        </mxCell>
        <mxCell id="XvD1D9-V97MnuDnXe-HW-66" value="" style="rounded=0;whiteSpace=wrap;html=1;fillColor=none;" vertex="1" parent="1">
          <mxGeometry x="457" y="1150" width="640" height="120" as="geometry" />
        </mxCell>
        <mxCell id="XvD1D9-V97MnuDnXe-HW-67" value="[Si quiere cancelar]" style="text;html=1;align=center;verticalAlign=middle;whiteSpace=wrap;rounded=0;" vertex="1" parent="1">
          <mxGeometry x="537" y="1150" width="480" height="40" as="geometry" />
        </mxCell>
        <mxCell id="XvD1D9-V97MnuDnXe-HW-68" value="cancelar()" style="text;html=1;align=center;verticalAlign=middle;whiteSpace=wrap;rounded=0;" vertex="1" parent="1">
          <mxGeometry x="537" y="1210" width="480" height="30" as="geometry" />
        </mxCell>
        <mxCell id="XvD1D9-V97MnuDnXe-HW-69" value="OPT" style="shape=card;whiteSpace=wrap;html=1;flipV=1;flipH=1;" vertex="1" parent="1">
          <mxGeometry x="457" y="1150" width="80" height="50" as="geometry" />
        </mxCell>
        <mxCell id="XvD1D9-V97MnuDnXe-HW-71" value="" style="endArrow=classic;html=1;rounded=0;" edge="1" parent="1">
          <mxGeometry width="50" height="50" relative="1" as="geometry">
            <mxPoint x="480" y="1030" as="sourcePoint" />
            <mxPoint x="1080" y="1030" as="targetPoint" />
          </mxGeometry>
        </mxCell>
        <mxCell id="XvD1D9-V97MnuDnXe-HW-73" value="" style="endArrow=classic;html=1;rounded=0;" edge="1" parent="1">
          <mxGeometry width="50" height="50" relative="1" as="geometry">
            <mxPoint x="480" y="1240" as="sourcePoint" />
            <mxPoint x="1080" y="1240" as="targetPoint" />
          </mxGeometry>
        </mxCell>
      </root>
    </mxGraphModel>
  </diagram>
</mxfile>
